<svg xmlns="http://www.w3.org/2000/svg" xmlns:bx="https://boxy-svg.com" viewBox="-10 0 280 280"><g transform="matrix(0.998059, 0, 0, 0.998059, -130.496796, -115.25647)"><title>full calendar</title><g transform="matrix(1, 0, 0, 1, 11.021392, 1.556886)"><title>calendar</title><g transform="matrix(1, 0, 0, 1, 0, 4.954987)"><title>blank calendar</title><rect width="218.319" height="217.616" x="140.823" y="140.837" style="stroke:#000;stroke-linejoin:round;fill:#f5f5f5;stroke-width:0" rx="19.732" ry="19.732"><title>background</title></rect><g transform="matrix(1, 0, 0, 0.800625, 0, 27.918283)"><title>top calendar</title><path style="stroke:#000;fill:#ed4532;stroke-width:0" d="M 160.68 140.029 H 339.285 A 19.909 19.909 0 0 1 359.194 159.938 V 207.045 H 140.77 V 159.939 A 19.91 19.91 0 0 1 160.68 140.029 Z" bx:shape="rect 140.77 140.029 218.424 67.016 19.91 19.909 0 0 1@68c4fe8f"/><rect width="218.319" height="7.496" x="140.783" y="206.616" style="stroke:#000;stroke-width:0;fill:#b9221b"/><rect width="218.319" height="7.223" x="140.787" y="213.786" style="stroke:#000;fill:#dddedd;stroke-width:0"/></g></g><text style="fill:#ef3d29;font-family:Roboto;font-size:150px;white-space:pre" x="214.569" y="339.964"><title>question mark</title>?</text></g><g style="pointer-events:none" transform="matrix(1, 0, 0, 1, 11.038611, 3.398118)"><title>pins</title><g transform="matrix(1, 0, 0, 1, -69.423409, -84.593193)"><title>left pin</title><ellipse style="stroke:#000;stroke-width:0;stroke-linejoin:round;fill:#a3120d" cx="250" cy="250" rx="11.109" ry="11.109"/><rect width="16.942" height="49.755" x="241.529" y="205.702" style="stroke:#000;fill:#44505e;stroke-linejoin:round;stroke-width:0" rx="8.471" ry="8.471"/></g><g transform="matrix(1, 0, 0, 1, 69.352982, -84.601997)" style="transform-origin:-120.009px -.843195px"><title>right pin</title><ellipse style="stroke:#000;stroke-width:0;stroke-linejoin:round;fill:#a3120d" cx="250" cy="250" rx="11.109" ry="11.109"/><rect width="16.942" height="49.755" x="241.529" y="205.702" style="stroke:#000;fill:#44505e;stroke-linejoin:round;stroke-width:0" rx="8.471" ry="8.471"/></g></g></g><defs><style bx:fonts="Roboto" bx:pinned="true">@import url(https://fonts.googleapis.com/css2?family=Roboto%3Aital%2Cwght%400%2C100%3B0%2C300%3B0%2C400%3B0%2C500%3B0%2C700%3B0%2C900%3B1%2C100%3B1%2C300%3B1%2C400%3B1%2C500%3B1%2C700%3B1%2C900&amp;display=swap);</style></defs></svg>